<svg xmlns="http://www.w3.org/2000/svg" viewBox="0 0 109.31 85.74"><defs><style>.cls-1{opacity:.1}.cls-2{fill:#333}</style></defs><title>Asset 1</title><g id="Layer_2" data-name="Layer 2"><g class="cls-1" id="Layer_1-2" data-name="Layer 1"><path class="cls-2" d="M49.1 66.2q0 7.82-6.3 13.68a21.13 21.13 0 0 1-14.88 5.86q-13.47 0-20.69-8.92T0 52.15Q0 37.5 12.43 22.59A80.9 80.9 0 0 1 42.37 0l5.39 8.67Q33.9 15.39 26.05 24.3A37.23 37.23 0 0 0 17 45.92h6.87a37.45 37.45 0 0 1 12.38 1.71 19.77 19.77 0 0 1 7.72 4.76 16.91 16.91 0 0 1 4 6.47 23.3 23.3 0 0 1 1.13 7.34zm60.21 0q0 7.82-6.3 13.68a21.13 21.13 0 0 1-14.88 5.86q-13.47 0-20.69-8.92t-7.23-24.67q0-14.66 12.43-29.56A80.9 80.9 0 0 1 102.58 0L108 8.67Q94.11 15.39 86.26 24.3a37.23 37.23 0 0 0-9.07 21.62h6.87a37.46 37.46 0 0 1 12.38 1.71 19.8 19.8 0 0 1 7.72 4.76 17 17 0 0 1 4 6.47 23.3 23.3 0 0 1 1.15 7.34z"/></g></g></svg>